{"title":"Rock the Kasbah(2015)MPEG-4[DaScubaDude]","uid":14265759,"size":1062521928,"categoryP":"video","categoryS":"movies","magnet":"?xt=urn:btih:8076d29e43f59b1aac823dfaa66ab275814bf603&amp;dn=Rock+the+Kasbah%282015%29MPEG-4%5BDaScubaDude%5D&amp;tr=udp%3A%2F%2Ftracker.leechers-paradise.org%3A6969&amp;tr=udp%3A%2F%2Fzer0day.ch%3A1337&amp;tr=udp%3A%2F%2Fopen.demonii.com%3A1337&amp;tr=udp%3A%2F%2Ftracker.coppersurfer.tk%3A6969&amp;tr=udp%3A%2F%2Fexodus.desync.com%3A6969","seeders":0,"leechers":1,"uploader":"dascuba","files":1,"time":1460255839,"description":"Rock the Kasbah (2015)\r\nR | 1h 46min | Comedy, Music, War | 23 October 2015 (USA)\r\nA down-on-his-luck music manager discovers a teenage girl with an extraordinary voice while on a music tour in Afghanistan and takes her to Kabul to compete on the popular television show, Afghan Star.\r\nDirector: Barry Levinson\r\nWriter: Mitch Glazer (screenplay)\r\nStars: Bill Murray, Leem Lubany, Zooey Deschanel |\r\n\r\nGeneral\r\nComplete name                            : Rock the KasbahROCK_THE_KASBAH_Title11.mp4\r\nFormat                                   : MPEG-4\r\nFormat profile                           : Base Media\r\nCodec ID                                 : isom\r\nFile size                                : 1 013 MiB\r\nDuration                                 : 1h 46mn\r\nOverall bit rate                         : 1 330 Kbps\r\nMovie name                               : ROCK_THE_KASBAH\r\nWriting application                      : Lavf54.6.100\r\n\r\nVideo\r\nID                                       : 1\r\nFormat                                   : AVC\r\nFormat/Info                              : Advanced Video Codec\r\nFormat profile                           :   \r\nFormat settings, CABAC                   : No\r\nFormat settings, ReFrames                : 6 frames\r\nCodec ID                                 : avc1\r\nCodec ID/Info                            : Advanced Video Coding\r\nDuration                                 : 1h 46mn\r\nBit rate                                 : 1 195 Kbps\r\nWidth                                    : 720 pixels\r\nHeight                                   : 404 pixels\r\nDisplay aspect ratio                     : 16:9\r\nFrame rate mode                          : Constant\r\nFrame rate                               : 29.970 fps\r\nColor space                              : YUV\r\nChroma subsampling                       : 4:2:0\r\nBit depth                                : 8 bits\r\nScan type                                : Progressive\r\nBits/(Pixel*Frame)                       : 0.137\r\nStream size                              : 911 MiB (90%)\r\n\r\nAudio\r\nID                                       : 2\r\nFormat                                   : AAC\r\nFormat/Info                              : Advanced Audio Codec\r\nFormat profile                           : LC\r\nCodec ID                                 : 40\r\nDuration                                 : 1h 46mn\r\nBit rate mode                            : Constant\r\nBit rate                                 : 128 Kbps\r\nChannel(s)                               : 2 channels\r\nChannel positions                        : Front: L R\r\nSampling rate                            : 44.1 KHz\r\nCompression mode                         : Lossy\r\nStream size                              : 97.5 MiB (10%)","torrent":{"xt":"urn:btih:8076d29e43f59b1aac823dfaa66ab275814bf603","amp;dn":"Rock+the+Kasbah%282015%29MPEG-4%5BDaScubaDude%5D","amp;tr":["udp%3A%2F%2Ftracker.leechers-paradise.org%3A6969","udp%3A%2F%2Fzer0day.ch%3A1337","udp%3A%2F%2Fopen.demonii.com%3A1337","udp%3A%2F%2Ftracker.coppersurfer.tk%3A6969","udp%3A%2F%2Fexodus.desync.com%3A6969"],"infoHash":"8076d29e43f59b1aac823dfaa66ab275814bf603","infoHashBuffer":{"type":"Buffer","data":[128,118,210,158,67,245,155,26,172,130,61,250,166,106,178,117,129,75,246,3]},"announce":[],"urlList":[]}}